<svg width="116" height="58" viewBox="0 0 116 58" fill="none" xmlns="http://www.w3.org/2000/svg">
<path d="M87.4232 0C82.5535 0 77.9157 1.15946 73.7416 3.47838C71.4227 4.86973 69.3357 6.49297 67.4805 8.34811L57.973 17.8557L48.4654 8.34811C46.6103 6.49297 44.5232 4.86973 42.2043 3.47838C38.0303 1.15946 33.1605 0 28.5227 0C12.7541 0 0 12.7541 0 28.5227C0 44.2914 12.7541 57.0454 28.5227 57.0454C33.3924 57.0454 38.0303 55.8859 42.2043 53.567C44.5232 52.1757 46.6103 50.7843 48.4654 48.6973L57.973 39.1897L67.4805 48.6973C69.3357 50.5524 71.4227 52.1757 73.7416 53.567C77.9157 55.8859 82.7854 57.0454 87.4232 57.0454C103.192 57.0454 115.946 44.2914 115.946 28.5227C115.946 12.7541 103.192 0 87.4232 0ZM37.7984 38.0303C36.8708 38.9578 35.9432 39.6535 34.7838 40.3492C32.6968 41.5087 30.6097 41.9724 28.2908 41.9724C20.8703 41.9724 15.073 35.9432 15.073 28.7546C15.073 21.5659 21.1022 15.5368 28.2908 15.5368C30.6097 15.5368 32.6968 16.0005 34.7838 17.16C35.9432 17.8557 36.8708 18.5514 37.7984 19.4789L47.3059 28.9865L37.7984 38.0303ZM87.4232 41.7405C85.1043 41.7405 83.0173 41.2768 80.9303 40.1173C79.7708 39.4216 78.8432 38.7259 77.9157 37.7984L68.64 28.5227L78.1476 19.0151C79.0751 18.0876 80.0027 17.3919 81.1622 16.6962C83.2492 15.5368 85.3362 15.073 87.6551 15.073C95.0757 15.073 100.873 21.1022 100.873 28.2908C100.873 35.9432 94.8438 41.7405 87.4232 41.7405Z" fill="white"/>
</svg>
