<svg width="23" height="25" viewBox="0 0 23 25" fill="none" xmlns="http://www.w3.org/2000/svg">
<path d="M22.14 14H4.25C4.14052 14.0006 4.03426 14.0371 3.94755 14.104C3.86084 14.1708 3.79846 14.2643 3.77 14.37L1.77 21.52L1.05 9.21C1.04631 9.17357 1.05067 9.13677 1.06276 9.10221C1.07486 9.06766 1.0944 9.03617 1.12 9.01C1.14606 8.98365 1.17727 8.96295 1.21167 8.94919C1.24608 8.93543 1.28296 8.92889 1.32 8.93H5C5.09696 8.93038 5.19252 8.95314 5.27925 8.9965C5.36597 9.03987 5.44151 9.10266 5.5 9.18L6.72 10.75C6.76606 10.8095 6.82519 10.8576 6.89283 10.8905C6.96046 10.9235 7.03477 10.9404 7.11 10.94H18V12.44C18 12.5726 18.0527 12.6998 18.1464 12.7936C18.2402 12.8873 18.3674 12.94 18.5 12.94C18.6326 12.94 18.7598 12.8873 18.8536 12.7936C18.9473 12.6998 19 12.5726 19 12.44V10.44C19.0013 10.3735 18.9894 10.3074 18.9648 10.2456C18.9403 10.1838 18.9037 10.1275 18.8571 10.08C18.8106 10.0325 18.755 9.99474 18.6937 9.96899C18.6324 9.94324 18.5665 9.92999 18.5 9.93H7.3L6.24 8.56C6.09169 8.37021 5.90408 8.21475 5.69005 8.10428C5.47601 7.99381 5.24061 7.93094 5 7.92H1.32C1.14549 7.92294 0.973321 7.96072 0.813615 8.03113C0.65391 8.10154 0.509884 8.20315 0.389998 8.33C0.272199 8.4552 0.181266 8.60318 0.122794 8.76484C0.0643224 8.9265 0.0395492 9.09841 0.0499983 9.27L0.999998 24.5C1.01277 24.6057 1.04679 24.7078 1.1 24.8C1.14602 24.8627 1.2063 24.9135 1.27585 24.9483C1.34541 24.9831 1.42224 25.0008 1.5 25H18.41C18.8345 24.9997 19.2469 24.858 19.5819 24.5972C19.9169 24.3365 20.1555 23.9715 20.26 23.56L21 20.67C21.0171 20.6043 21.021 20.536 21.0117 20.4688C21.0023 20.4016 20.9798 20.3369 20.9455 20.2784C20.9111 20.2199 20.8656 20.1687 20.8114 20.1278C20.7573 20.0869 20.6957 20.0571 20.63 20.04C20.5643 20.0229 20.496 20.019 20.4288 20.0283C20.3616 20.0377 20.2969 20.0602 20.2384 20.0945C20.1799 20.1289 20.1287 20.1744 20.0878 20.2286C20.0469 20.2827 20.0171 20.3443 20 20.41L19.24 23.31C19.186 23.5057 19.0702 23.6787 18.9098 23.803C18.7493 23.9274 18.553 23.9965 18.35 24H2.16L4.63 15H21.49L20.81 17.58C20.7768 17.7126 20.7977 17.853 20.8681 17.9702C20.9384 18.0874 21.0524 18.1718 21.185 18.205C21.3176 18.2382 21.458 18.2173 21.5752 18.1469C21.6924 18.0766 21.7768 17.9626 21.81 17.83L22.65 14.62C22.6699 14.5461 22.6726 14.4687 22.6578 14.3936C22.6431 14.3185 22.6113 14.2478 22.5649 14.187C22.5185 14.1261 22.4588 14.0767 22.3904 14.0426C22.3219 14.0084 22.2465 13.9904 22.17 13.99L22.14 14Z" fill="black"/>
<path d="M11.15 21.13C11.1031 21.1765 11.0659 21.2318 11.0405 21.2927C11.0151 21.3537 11.0021 21.419 11.0021 21.485C11.0021 21.551 11.0151 21.6164 11.0405 21.6773C11.0659 21.7382 11.1031 21.7935 11.15 21.84C11.1949 21.8878 11.2491 21.926 11.3093 21.952C11.3695 21.9781 11.4344 21.9915 11.5 21.9915C11.5656 21.9915 11.6305 21.9781 11.6907 21.952C11.7509 21.926 11.8051 21.8878 11.85 21.84C12.0225 21.6678 12.2562 21.5711 12.5 21.5711C12.7437 21.5711 12.9775 21.6678 13.15 21.84C13.1949 21.8878 13.2491 21.926 13.3093 21.952C13.3695 21.9781 13.4344 21.9915 13.5 21.9915C13.5656 21.9915 13.6305 21.9781 13.6907 21.952C13.7509 21.926 13.8051 21.8878 13.85 21.84C13.8968 21.7935 13.934 21.7382 13.9594 21.6773C13.9848 21.6164 13.9979 21.551 13.9979 21.485C13.9979 21.419 13.9848 21.3537 13.9594 21.2927C13.934 21.2318 13.8968 21.1765 13.85 21.13C13.6733 20.9516 13.463 20.81 13.2313 20.7134C12.9996 20.6167 12.751 20.567 12.5 20.567C12.2489 20.567 12.0003 20.6167 11.7686 20.7134C11.5369 20.81 11.3266 20.9516 11.15 21.13Z" fill="black"/>
<path d="M8.5 18C8.36739 18 8.24021 18.0527 8.14645 18.1464C8.05268 18.2402 8 18.3674 8 18.5C8 18.6326 8.05268 18.7598 8.14645 18.8536C8.24021 18.9473 8.36739 19 8.5 19H9.5C9.63261 19 9.75979 18.9473 9.85355 18.8536C9.94732 18.7598 10 18.6326 10 18.5C10 18.3674 9.94732 18.2402 9.85355 18.1464C9.75979 18.0527 9.63261 18 9.5 18H8.5Z" fill="black"/>
<path d="M15.5 18C15.3674 18 15.2402 18.0527 15.1464 18.1464C15.0527 18.2402 15 18.3674 15 18.5C15 18.6326 15.0527 18.7598 15.1464 18.8536C15.2402 18.9473 15.3674 19 15.5 19H16.5C16.6326 19 16.7598 18.9473 16.8536 18.8536C16.9473 18.7598 17 18.6326 17 18.5C17 18.3674 16.9473 18.2402 16.8536 18.1464C16.7598 18.0527 16.6326 18 16.5 18H15.5Z" fill="black"/>
<path d="M11 8.3C10.9806 8.39486 10.9871 8.49317 11.0188 8.58465C11.0504 8.67613 11.1061 8.75742 11.18 8.82C11.2683 8.8899 11.3773 8.92858 11.49 8.93C11.5625 8.9451 11.6374 8.9451 11.71 8.93L14.39 7.58C15.2314 7.84296 16.1084 7.97451 16.99 7.97C20.35 7.97 22.99 6.21 22.99 3.97C22.99 2.12 21.22 0.570003 18.58 0.0900027C18.4474 0.0661332 18.3107 0.0959199 18.2001 0.17281C18.0894 0.2497 18.0139 0.367395 17.99 0.500003C17.9661 0.632611 17.9959 0.76927 18.0728 0.879917C18.1497 0.990563 18.2674 1.06613 18.4 1.09C20.52 1.4 22 2.59 22 3.91C22 5.54 19.71 6.91 17 6.91C16.157 6.91296 15.3193 6.77784 14.52 6.51C14.4603 6.48293 14.3955 6.46893 14.33 6.46893C14.2645 6.46893 14.1997 6.48293 14.14 6.51L12.25 7.51L12.68 5.76C12.7002 5.68174 12.7007 5.5997 12.6815 5.52118C12.6623 5.44267 12.624 5.37012 12.57 5.31C12.212 4.9308 12.0087 4.43144 12 3.91C12 2.57 13.56 1.35 15.7 1C15.8322 0.977891 15.9503 0.904649 16.0289 0.796114C16.1075 0.687579 16.1402 0.552471 16.12 0.420003C16.0979 0.287836 16.0246 0.169682 15.9161 0.0910875C15.8076 0.012493 15.6725 -0.0202268 15.54 2.80002e-06C12.87 0.440003 11 2 11 3.9C11.0078 4.5652 11.2364 5.20894 11.65 5.73L11 8.3Z" fill="black"/>
<path d="M15.9 3.51L16.29 3.91L15.9 4.3C15.8047 4.39559 15.7512 4.52505 15.7512 4.66C15.7512 4.79496 15.8047 4.92441 15.9 5.02C15.9946 5.10931 16.1198 5.15906 16.25 5.15906C16.3801 5.15906 16.5053 5.10931 16.6 5.02L17 4.62L17.4 5.02C17.4946 5.10931 17.6198 5.15906 17.75 5.15906C17.8801 5.15906 18.0053 5.10931 18.1 5.02C18.1952 4.92441 18.2487 4.79496 18.2487 4.66C18.2487 4.52505 18.1952 4.39559 18.1 4.3L17.71 3.91L18.1 3.51C18.1468 3.46352 18.184 3.40822 18.2094 3.34729C18.2348 3.28636 18.2479 3.22101 18.2479 3.155C18.2479 3.089 18.2348 3.02364 18.2094 2.96271C18.184 2.90178 18.1468 2.84648 18.1 2.8C18.0551 2.75217 18.0009 2.71405 17.9407 2.68799C17.8805 2.66193 17.8156 2.64848 17.75 2.64848C17.6844 2.64848 17.6195 2.66193 17.5593 2.68799C17.4991 2.71405 17.4449 2.75217 17.4 2.8L17 3.2L16.6 2.8C16.5551 2.75217 16.5009 2.71405 16.4407 2.68799C16.3805 2.66193 16.3156 2.64848 16.25 2.64848C16.1844 2.64848 16.1195 2.66193 16.0593 2.68799C15.9991 2.71405 15.9449 2.75217 15.9 2.8C15.8531 2.84648 15.8159 2.90178 15.7905 2.96271C15.7651 3.02364 15.7521 3.089 15.7521 3.155C15.7521 3.22101 15.7651 3.28636 15.7905 3.34729C15.8159 3.40822 15.8531 3.46352 15.9 3.51Z" fill="black"/>
</svg>
