<svg width="471" height="161" viewBox="0 0 471 161" fill="none" xmlns="http://www.w3.org/2000/svg">
<g clip-path="url(#clip0_4_8)">
<path d="M108.423 59.0297C103.554 59.0297 98.9157 60.1892 94.7416 62.5081C92.4227 63.8995 90.3357 65.5227 88.4805 67.3778L78.973 76.8854L69.4654 67.3778C67.6103 65.5227 65.5232 63.8995 63.2043 62.5081C59.0303 60.1892 54.1605 59.0297 49.5227 59.0297C33.7541 59.0297 21 71.7838 21 87.5524C21 103.321 33.7541 116.075 49.5227 116.075C54.3924 116.075 59.0303 114.916 63.2043 112.597C65.5232 111.205 67.6103 109.814 69.4654 107.727L78.973 98.2195L88.4805 107.727C90.3357 109.582 92.4227 111.205 94.7416 112.597C98.9157 114.916 103.785 116.075 108.423 116.075C124.192 116.075 136.946 103.321 136.946 87.5524C136.946 71.7838 124.192 59.0297 108.423 59.0297ZM58.7984 97.06C57.8708 97.9876 56.9432 98.6832 55.7838 99.3789C53.6968 100.538 51.6097 101.002 49.2908 101.002C41.8703 101.002 36.073 94.973 36.073 87.7843C36.073 80.5957 42.1022 74.5665 49.2908 74.5665C51.6097 74.5665 53.6968 75.0303 55.7838 76.1897C56.9432 76.8854 57.8708 77.5811 58.7984 78.5086L68.3059 88.0162L58.7984 97.06ZM108.423 100.77C106.104 100.77 104.017 100.306 101.93 99.147C100.771 98.4513 99.8432 97.7557 98.9157 96.8281L89.64 87.5524L99.1476 78.0449C100.075 77.1173 101.003 76.4216 102.162 75.7259C104.249 74.5665 106.336 74.1027 108.655 74.1027C116.076 74.1027 121.873 80.1319 121.873 87.3205C121.873 94.973 115.844 100.77 108.423 100.77Z" fill="#1E1E1E"/>
<path d="M220.27 37V51.8649H177.815V69.0946H216.779V82.8333H177.815V102.541H221.171V117.405H160.135V37H220.27ZM264.977 57.6081C273.461 57.6081 279.13 60.8363 281.982 67.2928C286.411 60.8362 292.305 57.6081 299.662 57.6081C306.944 57.6081 312.294 59.4474 315.709 63.1261C319.125 66.8048 320.833 71.8722 320.833 78.3288V117.405H304.842V83.7342C304.842 78.6292 304.073 75.1008 302.534 73.1487C300.995 71.1965 298.498 70.2207 295.045 70.2207C287.913 70.2207 284.347 75.1006 284.347 84.8604V117.405H268.356V83.0586C268.356 78.1036 267.568 74.7252 265.991 72.9234C264.414 71.1216 261.974 70.2207 258.671 70.2207C255.593 70.2207 253.022 71.4407 250.957 73.8806C248.892 76.3206 247.86 79.5298 247.86 83.509V117.405H231.869V59.1847H246.959V67.0676H247.185C251.614 60.7613 257.545 57.6081 264.977 57.6081ZM361.712 57.6081C371.021 57.6081 378.378 60.4422 383.784 66.1104C389.189 71.7785 391.892 79.1926 391.892 88.3514C391.892 97.5856 389.133 104.999 383.615 110.592C378.097 116.186 370.796 118.982 361.712 118.982C352.477 118.982 345.158 116.148 339.752 110.48C334.347 104.812 331.644 97.4358 331.644 88.3514C331.644 78.9668 334.403 71.4966 339.921 65.9414C345.439 60.3863 352.703 57.6081 361.712 57.6081ZM347.635 88.3514C347.635 94.2821 348.836 98.8615 351.239 102.09C353.641 105.319 357.132 106.932 361.712 106.932C366.441 106.932 369.989 105.281 372.354 101.977C374.718 98.6742 375.901 94.1323 375.901 88.3514C375.901 82.3452 374.681 77.728 372.241 74.5C369.801 71.272 366.254 69.6577 361.599 69.6577C357.095 69.6577 353.641 71.2717 351.239 74.5C348.836 77.7283 347.635 82.3452 347.635 88.3514ZM419.707 37V50.1757H403.716V37H419.707ZM419.707 59.1847L419.707 120.671C419.707 124.875 419.088 128.178 417.849 130.581C416.61 132.984 414.583 134.804 411.768 136.043C408.953 137.282 404.805 137.901 399.324 137.901C397.222 137.901 395.458 137.751 394.032 137.45V124.275C394.932 124.575 396.134 124.725 397.635 124.725C399.963 124.725 401.577 124.256 402.477 123.318C403.378 122.379 403.791 121.084 403.716 119.432V59.1847H419.707ZM450 37V50.1757H434.009V37H450ZM450 59.1847V117.405H434.009V59.1847H450Z" fill="#1E1E1E"/>
</g>
<defs>
<clipPath id="clip0_4_8">
<rect width="429" height="100.901" fill="white" transform="translate(21 37)"/>
</clipPath>
</defs>
</svg>
